<?xml version="1.0" standalone="no"?>
<!DOCTYPE svg PUBLIC "-//W3C//DTD SVG 20010904//EN"
 "http://www.w3.org/TR/2001/REC-SVG-20010904/DTD/svg10.dtd">
<svg version="1.0" xmlns="http://www.w3.org/2000/svg"
 width="130.000000pt" height="130.000000pt" viewBox="0 0 130.000000 130.000000"
 preserveAspectRatio="xMidYMid meet">
<metadata>
Created by potrace 1.11, written by Peter Selinger 2001-2013
</metadata>
<g transform="translate(0.000000,130.000000) scale(0.100000,-0.100000)"
fill="#000000" stroke="none">
<path d="M604 926 c-45 -20 -60 -63 -41 -118 40 -119 174 -426 194 -445 24
-25 59 -29 97 -12 25 12 77 110 198 372 41 88 49 115 44 142 -10 50 -50 78
-101 72 -49 -7 -64 -25 -128 -147 -27 -51 -53 -88 -57 -84 -5 5 -25 50 -45
101 -20 50 -44 98 -54 107 -25 23 -71 28 -107 12z"/>
<path d="M265 904 c-14 -15 -25 -39 -25 -53 0 -15 41 -126 90 -246 95 -233
116 -265 171 -265 38 0 89 48 89 83 0 36 -168 458 -193 485 -31 33 -100 31
-132 -4z"/>
</g>
</svg>
