<?xml version="1.0" standalone="no"?>
<!DOCTYPE svg PUBLIC "-//W3C//DTD SVG 20010904//EN"
 "http://www.w3.org/TR/2001/REC-SVG-20010904/DTD/svg10.dtd">
<svg version="1.0" xmlns="http://www.w3.org/2000/svg"
 width="2915.000000pt" height="2915.000000pt" viewBox="0 0 2915.000000 2915.000000"
 preserveAspectRatio="xMidYMid meet">
<metadata>
Created by potrace 1.11, written by Peter Selinger 2001-2013
</metadata>
<g transform="translate(0.000000,2915.000000) scale(0.100000,-0.100000)"
fill="#000000" stroke="none">
<path d="M25230 23474 c-436 -43 -837 -176 -1202 -401 -87 -53 -254 -171 -288
-204 -8 -8 -40 -35 -71 -61 -189 -159 -399 -408 -545 -648 -52 -86 -233 -440
-339 -665 -24 -49 -102 -211 -175 -360 -73 -148 -163 -333 -200 -410 -37 -77
-125 -257 -195 -400 -70 -143 -162 -332 -205 -420 -43 -88 -131 -268 -195
-400 -65 -132 -155 -316 -200 -410 -45 -93 -133 -273 -195 -400 -62 -126 -147
-302 -190 -390 -43 -88 -128 -263 -190 -390 -199 -407 -320 -656 -410 -840
-48 -99 -136 -279 -195 -400 -59 -121 -142 -292 -185 -380 -43 -88 -141 -290
-219 -450 -78 -159 -179 -365 -223 -457 -45 -93 -84 -168 -87 -168 -3 0 -71
161 -150 358 -231 573 -688 1706 -818 2027 -127 313 -265 656 -523 1295 -128
316 -257 636 -287 710 -30 74 -142 351 -248 615 -107 264 -249 615 -315 780
-67 165 -153 379 -192 475 -74 185 -88 217 -146 345 -374 815 -1122 1394
-2022 1564 -159 30 -300 42 -493 42 -172 0 -271 -7 -427 -32 -807 -128 -1506
-600 -1930 -1304 -49 -81 -261 -499 -374 -737 -24 -51 -101 -210 -171 -353
-126 -258 -231 -473 -410 -840 -114 -234 -247 -507 -395 -810 -62 -126 -150
-306 -195 -400 -45 -93 -135 -278 -200 -410 -65 -132 -152 -312 -195 -400 -76
-157 -169 -348 -385 -790 -59 -121 -145 -296 -190 -390 -46 -93 -136 -278
-200 -410 -65 -132 -155 -316 -200 -410 -45 -93 -137 -282 -204 -420 -67 -137
-161 -330 -209 -428 -54 -111 -89 -172 -93 -164 -7 11 -285 698 -902 2227 -74
184 -169 418 -210 520 -41 102 -123 304 -181 450 -59 146 -111 274 -116 285
-5 11 -62 151 -126 310 -64 160 -154 385 -201 500 -47 116 -114 282 -149 370
-35 88 -68 169 -74 180 -5 11 -50 124 -101 250 -50 127 -132 329 -181 450 -49
121 -151 375 -228 565 -217 541 -276 665 -414 875 -505 769 -1368 1236 -2286
1236 -188 1 -271 -6 -458 -37 -633 -104 -1226 -438 -1635 -922 -382 -451 -592
-956 -653 -1562 -8 -77 -8 -381 0 -448 3 -26 8 -71 11 -100 24 -226 93 -485
202 -752 30 -74 84 -207 120 -295 35 -88 70 -173 77 -190 7 -16 23 -57 36 -90
13 -33 27 -64 32 -69 4 -6 8 -16 8 -24 0 -7 8 -32 19 -55 10 -23 51 -123 91
-222 180 -449 221 -551 230 -570 5 -11 27 -67 50 -125 23 -58 47 -118 55 -135
7 -16 30 -73 50 -125 37 -95 116 -288 140 -345 7 -16 49 -120 93 -230 77 -192
89 -223 117 -290 28 -65 519 -1283 535 -1325 18 -48 204 -510 220 -547 6 -13
14 -33 20 -45 5 -13 43 -106 84 -208 150 -375 347 -861 441 -1095 54 -132 106
-260 115 -285 52 -132 83 -208 95 -235 8 -16 93 -228 191 -470 97 -242 192
-478 211 -525 20 -47 46 -112 58 -145 34 -88 373 -926 385 -950 5 -11 101
-249 214 -530 206 -513 421 -1045 601 -1490 53 -132 158 -391 232 -575 122
-302 240 -594 273 -675 7 -16 16 -39 20 -50 4 -11 14 -36 22 -55 8 -19 35 -84
59 -145 382 -962 1232 -1610 2282 -1740 106 -13 551 -15 602 -2 11 3 47 8 80
11 98 11 302 55 422 92 440 133 823 363 1149 688 238 239 393 461 561 806 99
203 289 592 390 800 47 96 133 272 191 390 57 118 146 301 197 405 51 105 136
280 190 390 120 246 268 548 390 800 51 105 141 289 200 410 118 241 259 530
395 810 48 99 143 293 210 430 67 138 155 318 195 400 40 83 130 267 200 410
70 143 160 328 200 410 124 256 257 529 385 790 l122 249 27 -69 c66 -167 274
-683 287 -710 7 -16 22 -55 34 -85 11 -30 25 -64 30 -75 5 -11 61 -150 126
-310 64 -159 149 -371 189 -470 81 -200 297 -736 441 -1095 52 -129 99 -244
104 -255 5 -11 43 -103 84 -205 130 -324 537 -1333 738 -1830 77 -190 245
-607 373 -927 248 -615 269 -665 348 -808 159 -289 415 -596 667 -798 424
-341 945 -554 1480 -605 97 -9 403 -9 501 0 722 67 1395 420 1858 974 163 196
275 376 426 687 51 106 136 282 190 392 146 300 290 595 410 840 59 121 145
297 190 390 99 203 241 496 395 810 62 127 152 311 200 410 48 99 134 275 190
390 56 116 142 291 190 390 87 180 218 448 397 815 175 357 314 643 393 805
43 88 130 268 195 400 65 132 152 312 195 400 43 88 130 268 195 400 136 278
292 597 410 840 91 187 223 458 395 810 62 127 150 307 195 400 45 94 131 269
190 390 59 121 150 308 202 415 53 107 145 296 205 420 144 293 255 523 362
745 48 99 94 194 103 210 28 51 31 56 101 205 38 80 121 251 184 380 160 327
315 644 413 845 110 225 161 359 214 555 26 96 58 258 67 335 3 33 8 69 11 80
9 41 11 453 2 535 -61 545 -236 993 -553 1415 -119 158 -331 372 -496 501
-138 108 -457 304 -495 304 -8 0 -16 4 -19 9 -10 15 -245 108 -370 146 -112
34 -246 66 -326 79 -19 3 -46 8 -60 10 -170 30 -462 39 -660 20z"/>
</g>
</svg>
